# xmcd
#
# Track frame offsets: 
#        150
#        11050
#        30652
#        48062
#        61402
#        82080
#        96960
#        114450
#        127462
#        141030
#        154930
#
# Disc length: 2260 seconds
#
# Revision: 0
# Processed by: cddbd v1.5.2PL0 Copyright (c) Steve Scherf et al.
# Submitted via: ExactAudioCopy v1.1
#
DISCID=9608d20b
DTITLE=Dwight Yoakam - Buenas Noches From A Lonely Room
DYEAR=1990
DGENRE=Country
TTITLE0=I Got You
TTITLE1=One More Name
TTITLE2=What I Don't Know
TTITLE3=Home Of The Blues
TTITLE4=Buenas Noches From A Lonely Room (She Wore Red Dresses)
TTITLE5=I Hear You Knockin'
TTITLE6=I Sang Dixie
TTITLE7=Streets Of Bakersfield
TTITLE8=Floyd County
TTITLE9=Send Me The Pillow
TTITLE10=Hold On To God
EXTD=
EXTT0=
EXTT1=
EXTT2=
EXTT3=
EXTT4=
EXTT5=
EXTT6=
EXTT7=
EXTT8=
EXTT9=
EXTT10=
PLAYORDER=
